<svg width="40" height="40" viewBox="0 0 40 40" fill="none" xmlns="http://www.w3.org/2000/svg">
<g clip-path="url(#clip0)">
<path d="M23.75 37.5H17.5C15.4325 37.5 13.75 35.8175 13.75 33.75C13.75 33.0812 13.925 32.4538 14.2325 31.91C13.1912 31.2425 12.5 30.0763 12.5 28.75C12.5 27.79 12.8625 26.9137 13.4575 26.25C12.8625 25.5863 12.5 24.71 12.5 23.75C12.5 23.3125 12.575 22.8913 12.7137 22.5H3.75C1.6825 22.5 0 20.8175 0 18.75C0 16.6825 1.6825 15 3.75 15H19.1675L15.5025 8.12375C15.175 7.55625 15.0013 6.9075 15.0013 6.25C15.0013 4.1825 16.6838 2.5 18.7513 2.5C19.7812 2.5 20.7412 2.90875 21.455 3.65125C21.4637 3.66125 21.4738 3.67 21.4825 3.68L30.0012 13.0225V11.2487C30.0012 10.5587 30.5612 9.99875 31.2512 9.99875H38.7513C39.4412 9.99875 40.0013 10.5587 40.0013 11.2487V36.2487C40.0013 36.9388 39.4412 37.4987 38.7513 37.4987H31.2512C30.5612 37.4987 30.0012 36.9388 30.0012 36.2487V34.5213L24.31 37.3662C24.1362 37.4525 23.945 37.4987 23.7512 37.4987L23.75 37.5ZM33.75 35C34.44 35 35 34.44 35 33.75C35 33.06 34.44 32.5 33.75 32.5C33.06 32.5 32.5 33.06 32.5 33.75C32.5 34.44 33.06 35 33.75 35ZM23.455 35L30 31.7275V16.7338L19.6413 5.37375C19.4037 5.1325 19.0875 5 18.75 5C18.0613 5 17.5 5.56125 17.5 6.25C17.5 6.46375 17.5513 6.665 17.6525 6.84875C17.665 6.87 17.6775 6.89 17.6887 6.9125L22.3537 15.6625C22.56 16.05 22.5487 16.5175 22.3225 16.8938C22.0963 17.27 21.69 17.5 21.2512 17.5H3.75125C3.0625 17.5 2.50125 18.0612 2.50125 18.75C2.50125 19.4387 3.0625 20 3.75125 20H16.2513C16.9412 20 17.5013 20.56 17.5013 21.25C17.5013 21.94 16.9412 22.5 16.2513 22.5C15.5625 22.5 15.0013 23.0613 15.0013 23.75C15.0013 24.4387 15.5625 25 16.2513 25C16.9412 25 17.5013 25.56 17.5013 26.25C17.5013 26.94 16.9412 27.5 16.2513 27.5C15.5625 27.5 15.0013 28.0613 15.0013 28.75C15.0013 29.4387 15.5625 30 16.2513 30H17.5013C18.1912 30 18.7513 30.56 18.7513 31.25C18.7513 31.94 18.1912 32.5 17.5013 32.5C16.8125 32.5 16.2513 33.0613 16.2513 33.75C16.2513 34.4387 16.8125 35 17.5013 35H23.4562H23.455Z" fill="#D0D9C3"/>
</g>
<defs>
<clipPath id="clip0">
<rect width="40" height="40" fill="white"/>
</clipPath>
</defs>
</svg>
