<svg width="40" height="40" viewBox="0 0 40 40" fill="none" xmlns="http://www.w3.org/2000/svg">
<g clip-path="url(#clip0)">
<path d="M16.25 37.5H22.5C24.5675 37.5 26.25 35.8175 26.25 33.75C26.25 33.0812 26.075 32.4538 25.7662 31.91C26.8075 31.2425 27.5 30.0763 27.5 28.75C27.5 27.79 27.1375 26.9137 26.5425 26.25C27.1375 25.5863 27.5 24.71 27.5 23.75C27.5 23.3125 27.425 22.8913 27.2862 22.5H36.25C38.3175 22.5 40 20.8175 40 18.75C40 16.6825 38.3175 15 36.25 15H20.8325L24.4975 8.12375C24.825 7.55625 24.9987 6.9075 24.9987 6.25C24.9987 4.1825 23.3162 2.5 21.2487 2.5C20.2187 2.5 19.2587 2.90875 18.545 3.6525C18.5362 3.6625 18.5262 3.67125 18.5175 3.68125L9.99875 13.0237V11.25C9.99875 10.56 9.43875 10 8.74875 10H1.24875C0.558749 10 -0.00125122 10.56 -0.00125122 11.25V36.25C-0.00125122 36.94 0.558749 37.5 1.24875 37.5H8.74875C9.43875 37.5 9.99875 36.94 9.99875 36.25V34.5225L15.69 37.3675C15.8637 37.4538 16.055 37.5 16.2487 37.5H16.25ZM6.25 35C5.56 35 5 34.44 5 33.75C5 33.06 5.56 32.5 6.25 32.5C6.94 32.5 7.5 33.06 7.5 33.75C7.5 34.44 6.94 35 6.25 35ZM16.545 35L10 31.7275V16.7338L20.3587 5.37375C20.5962 5.1325 20.9125 5 21.25 5C21.9387 5 22.5 5.56125 22.5 6.25C22.5 6.46375 22.4487 6.665 22.3475 6.84875C22.335 6.87 22.3225 6.89 22.3112 6.9125L17.6462 15.6625C17.44 16.05 17.4513 16.5175 17.6775 16.8938C17.9037 17.27 18.31 17.5 18.7487 17.5H36.2487C36.9375 17.5 37.4987 18.0612 37.4987 18.75C37.4987 19.4387 36.9375 20 36.2487 20H23.7487C23.0587 20 22.4987 20.56 22.4987 21.25C22.4987 21.94 23.0587 22.5 23.7487 22.5C24.4375 22.5 24.9987 23.0613 24.9987 23.75C24.9987 24.4387 24.4375 25 23.7487 25C23.0587 25 22.4987 25.56 22.4987 26.25C22.4987 26.94 23.0587 27.5 23.7487 27.5C24.4375 27.5 24.9987 28.0613 24.9987 28.75C24.9987 29.4387 24.4375 30 23.7487 30H22.4987C21.8087 30 21.2487 30.56 21.2487 31.25C21.2487 31.94 21.8087 32.5 22.4987 32.5C23.1875 32.5 23.7487 33.0613 23.7487 33.75C23.7487 34.4387 23.1875 35 22.4987 35H16.5437H16.545Z" fill="#D0D9C3"/>
</g>
<defs>
<clipPath id="clip0">
<rect width="40" height="40" fill="white"/>
</clipPath>
</defs>
</svg>
